<svg xmlns="http://www.w3.org/2000/svg" viewBox="0 0 767.52577 597.58039">
  <title>tick</title>
  <g id="Capa_2" data-name="Capa 2">
    <g id="Capa_1-2" data-name="Capa 1">
      <path d="M252.49832,399.99572c2.2301-3.07171,3.20962-4.88079,4.60372-6.27557Q441.22728,209.50575,625.42,25.35882C657.15881-6.37285,705.45172-8.56175,738.97833,20.128c35.92065,30.73848,38.35742,86.76821,4.95459,120.1939Q527.14739,357.25622,310.2181,574.04681c-31.8822,31.866-83.763,31.36914-116.83831-1.4823Q109.14107,488.89593,25.46787,404.65875C-5.8059,373.18988-8.45212,326.6549,18.497,293.01053c30.29428-37.82065,87.855-40.98334,122.17081-6.69016q53.92539,53.89,107.78677,107.84375C249.72985,395.44208,250.55969,397.16443,252.49832,399.99572Z"/>
    </g>
  </g>
</svg>
